<?xml version="1.0" encoding="utf-8"?>
<!-- Generator: Adobe Illustrator 17.1.0, SVG Export Plug-In . SVG Version: 6.00 Build 0)  -->
<!DOCTYPE svg PUBLIC "-//W3C//DTD SVG 1.1//EN" "http://www.w3.org/Graphics/SVG/1.1/DTD/svg11.dtd">
<svg version="1.1" id="checklist" xmlns="http://www.w3.org/2000/svg" xmlns:xlink="http://www.w3.org/1999/xlink" x="0px" y="0px"
	 viewBox="0 0 1010 1010" enable-background="new 0 0 1010 1010" xml:space="preserve">
<g id="checklist-checklist">
	<path id="checklist-label" fill="#e10c0c" d="M1010,505c0,278.9043-226.1055,505-505,505C226.0859,1010,0,783.9043,0,505
		S226.0859,0,505,0C783.8945,0,1010,226.0957,1010,505z"/>
	<g id="checklist-checklist_1_">
		<g>
			<g>
				<path fill="#FFFFFF" d="M587.1016,286.0547h109.463c10.08,0,18.2469,8.1767,18.2469,18.2471v465.2509
					c0,10.0801-8.167,18.2471-18.2469,18.2471H313.416c-10.0806,0-18.2471-8.167-18.2471-18.2471V304.3018
					c0-10.0704,8.1665-18.2471,18.2471-18.2471h109.4824"/>
				<path fill="#454545" d="M696.5645,797.9004H313.416c-15.6289,0-28.3476-12.7246-28.3476-28.3477V304.3018
					c0-15.6231,12.7187-28.3467,28.3476-28.3467h109.4824v20.1997H313.416c-4.4931,0-8.1474,3.6494-8.1474,8.147v465.2509
					c0,4.4981,3.6543,8.1475,8.1474,8.1475h383.1485c4.4882,0,8.1474-3.6494,8.1474-8.1475V304.3018
					c0-4.4976-3.6592-8.147-8.1474-8.147h-109.463v-20.1997h109.463c15.6337,0,28.3476,12.7236,28.3476,28.3467v465.2509
					C724.9121,785.1758,712.1982,797.9004,696.5645,797.9004L696.5645,797.9004z"/>
			</g>
			<g>
				<path fill="#202020" d="M568.855,267.8076c0,0-27.3609-5.9375-27.3609-9.1133c0-20.1709-16.3535-36.4941-36.4941-36.4941
					c-20.1602,0-36.4941,16.3232-36.4941,36.4941c0,3.1758-27.3604,9.1133-27.3604,9.1133
					c-10.0806,0-18.2471,8.1768-18.2471,18.2471v36.4941c0,10.0703,8.1665,18.2471,18.2471,18.2471H568.855
					c10.0605,0,18.2466-8.1768,18.2466-18.2471v-36.4941C587.1016,275.9844,578.9155,267.8076,568.855,267.8076z"/>
				<path fill="#454545" d="M568.855,350.896H441.1455c-15.6289,0-28.3476-12.7236-28.3476-28.3472v-36.4941
					c0-15.2285,12.0629-27.686,27.1342-28.3272c7.1656-1.5781,14.5728-3.5805,18.8584-5.0302
					c2.9492-22.8633,22.5474-40.5977,46.2095-40.5977s43.2607,17.7344,46.2095,40.5977c4.2856,1.4497,11.6928,3.4521,18.8589,5.0302
					c15.0703,0.6412,27.1337,13.0987,27.1337,28.3272v36.4941C597.2021,338.1724,584.4834,350.896,568.855,350.896L568.855,350.896z
					 M505,232.2998c-14.5532,0-26.394,11.8359-26.394,26.3945c0,8.354-5.336,12.4766-35.3204,18.9766
					c-0.7006,0.1582-1.4204,0.2368-2.1401,0.2368c-4.4932,0-8.1475,3.6494-8.1475,8.147v36.4941
					c0,4.4981,3.6543,8.1475,8.1475,8.1475H568.855c4.4927,0,8.147-3.6494,8.147-8.1475v-36.4941c0-4.4976-3.6543-8.147-8.147-8.147
					c-0.7202,0-1.44-0.0786-2.1402-0.2368c-29.9843-6.5-35.3203-10.6226-35.3203-18.9766
					C531.3945,244.1357,519.5537,232.2998,505,232.2998L505,232.2998z"/>
			</g>
		</g>
		<g>
			<g>
				<circle fill="#e10c0c" cx="373.7" cy="446.5605" r="40.4001"/>
				<g>
					<polygon fill="#FFFFFF" points="373.7002,470.9414 346.3594,443.6016 360.6411,429.3188 373.7002,442.3779 406.959,409.1191 
						421.2412,423.4009 373.7002,470.9414 					"/>
				</g>
			</g>
			<g>
				<circle fill="#e10c0c" cx="373.7" cy="567.7598" r="40.4001"/>
				<g>
					<polygon fill="#FFFFFF" points="373.7002,592.1426 346.3594,564.8008 360.6411,550.5195 373.7002,563.5781 406.959,530.3184 
						421.2412,544.6016 373.7002,592.1426 					"/>
				</g>
			</g>
			<g>
				<circle fill="#e10c0c" cx="373.7" cy="688.96" r="40.4001"/>
				<g>
					<polygon fill="#FFFFFF" points="373.7002,713.3418 346.3594,686.001 360.6411,671.7187 373.7002,684.7773 406.959,651.5195 
						421.2412,665.8008 373.7002,713.3418 					"/>
				</g>
			</g>
			<g>
				<polygon fill="#454545" points="676.7002,436.46 474.7002,436.46 474.7002,416.2598 676.7002,416.2598 676.7002,436.46 				"/>
			</g>
			<g>
				<polygon fill="#454545" points="595.9004,476.8594 474.7002,476.8594 474.7002,456.6602 595.9004,456.6602 595.9004,476.8594 
									"/>
			</g>
			<g>
				<polygon fill="#454545" points="535.2998,557.6602 474.7002,557.6602 474.7002,537.46 535.2998,537.46 535.2998,557.6602 				
					"/>
			</g>
			<g>
				<polygon fill="#454545" points="676.7002,557.6602 555.5,557.6602 555.5,537.46 676.7002,537.46 676.7002,557.6602 				"/>
			</g>
			<g>
				<polygon fill="#454545" points="636.2998,598.0605 474.7002,598.0605 474.7002,577.8594 636.2998,577.8594 636.2998,598.0605 
									"/>
			</g>
			<g>
				<polygon fill="#454545" points="676.7002,678.8594 474.7002,678.8594 474.7002,658.6602 676.7002,658.6602 676.7002,678.8594 
									"/>
			</g>
			<g>
				<polygon fill="#454545" points="535.2998,719.2598 474.7002,719.2598 474.7002,699.0605 535.2998,699.0605 535.2998,719.2598 
									"/>
			</g>
			<g>
				<polygon fill="#454545" points="616.0996,719.2598 555.5,719.2598 555.5,699.0605 616.0996,699.0605 616.0996,719.2598 				"/>
			</g>
		</g>
	</g>
</g>
</svg>
